<svg width="222" height="38" viewBox="0 0 222 38" fill="none" xmlns="http://www.w3.org/2000/svg">
<path d="M0.967773 33.832H4.32777V6.66399H0.967773V3.49599H27.7038V12.424H22.1358V6.95198H12.1038V18.52H18.4398V15.64H21.9918V24.856H18.4398V21.976H12.1038V33.832H16.6638V37H0.967773V33.832Z" fill="#141414"/>
<path d="M30.2133 33.832H33.0933V16.696L30.2133 16.072V13.336L40.2453 11.272V16.024H40.4373C40.8853 14.68 41.6053 13.56 42.5973 12.664C43.5893 11.736 44.8853 11.272 46.4853 11.272C48.0533 11.272 49.2853 11.704 50.1813 12.568C51.0773 13.4 51.5253 14.552 51.5253 16.024C51.5253 17.304 51.1893 18.312 50.5173 19.048C49.8453 19.784 48.9013 20.152 47.6853 20.152C46.5333 20.152 45.6533 19.848 45.0453 19.24C44.4373 18.6 44.1333 17.848 44.1333 16.984C44.1333 16.6 44.2133 16.248 44.3733 15.928C44.5333 15.608 44.7253 15.4 44.9493 15.304L44.9013 15.064C44.8053 15.032 44.6613 15.016 44.4693 15.016C43.9573 15.016 43.4613 15.16 42.9813 15.448C42.5013 15.736 42.0693 16.104 41.6853 16.552C41.3013 17 40.9813 17.496 40.7253 18.04C40.5013 18.584 40.3893 19.112 40.3893 19.624V33.832H44.2293V37H30.2133V33.832Z" fill="#141414"/>
<path d="M61.4692 37.576C58.7491 37.576 56.7651 36.952 55.5171 35.704C54.3011 34.424 53.6931 32.648 53.6931 30.376C53.6931 25.416 57.3571 22.936 64.6852 22.936H68.0452V20.2C68.0452 18.248 67.6771 16.776 66.9411 15.784C66.2051 14.792 64.9252 14.296 63.1012 14.296C62.4291 14.296 61.8531 14.344 61.3731 14.44C60.8932 14.536 60.4771 14.664 60.1251 14.824V15.064C60.4451 15.224 60.7491 15.512 61.0371 15.928C61.3571 16.344 61.5171 16.904 61.5171 17.608C61.5171 18.568 61.2132 19.384 60.6051 20.056C59.9971 20.696 59.0851 21.016 57.8691 21.016C56.9091 21.016 56.1091 20.68 55.4691 20.008C54.8291 19.336 54.5091 18.488 54.5091 17.464C54.5091 16.696 54.7331 15.944 55.1811 15.208C55.6292 14.44 56.3011 13.768 57.1971 13.192C58.0931 12.616 59.1971 12.152 60.5091 11.8C61.8531 11.448 63.3891 11.272 65.1171 11.272C68.6051 11.272 71.1811 12.024 72.8451 13.528C74.5091 15 75.3411 17.096 75.3411 19.816V33.832H78.2212V36.568C77.6772 36.888 76.9731 37.128 76.1091 37.288C75.2451 37.48 74.3492 37.576 73.4212 37.576C71.6611 37.576 70.4131 37.176 69.6771 36.376C68.9731 35.544 68.6211 34.52 68.6211 33.304V33.208H68.3332C68.1092 33.752 67.8211 34.28 67.4691 34.792C67.1491 35.304 66.7171 35.768 66.1731 36.184C65.6611 36.6 65.0211 36.936 64.2532 37.192C63.4851 37.448 62.5572 37.576 61.4692 37.576ZM64.2051 33.256C65.3891 33.256 66.3172 32.984 66.9892 32.44C67.6932 31.896 68.0452 30.952 68.0452 29.608V25.816H65.4531C63.9171 25.816 62.7652 26.136 61.9972 26.776C61.2612 27.416 60.8932 28.328 60.8932 29.512V30.28C60.8932 31.304 61.1972 32.056 61.8051 32.536C62.4132 33.016 63.2131 33.256 64.2051 33.256Z" fill="#141414"/>
<path d="M81.307 33.832H84.187V16.696L81.307 16.072V13.336L91.339 11.272V16.024H91.579C92.027 14.744 92.827 13.64 93.979 12.712C95.131 11.752 96.715 11.272 98.731 11.272C101.803 11.272 103.963 12.056 105.211 13.624C106.491 15.16 107.131 17.48 107.131 20.584V33.832H110.011V37H97.195V33.832H99.835V20.824C99.835 19.128 99.531 17.928 98.923 17.224C98.347 16.488 97.355 16.12 95.947 16.12C95.403 16.12 94.859 16.2 94.315 16.36C93.771 16.488 93.291 16.712 92.875 17.032C92.459 17.32 92.123 17.704 91.867 18.184C91.611 18.632 91.483 19.192 91.483 19.864V33.832H94.123V37H81.307V33.832Z" fill="#141414"/>
<path d="M125.424 37.576C123.408 37.576 121.632 37.24 120.096 36.568C118.592 35.896 117.312 34.968 116.256 33.784C115.232 32.6 114.448 31.208 113.904 29.608C113.392 28.008 113.136 26.264 113.136 24.376C113.136 22.264 113.472 20.408 114.144 18.808C114.816 17.176 115.728 15.8 116.88 14.68C118.064 13.56 119.44 12.712 121.008 12.136C122.608 11.56 124.32 11.272 126.144 11.272C129.088 11.272 131.344 11.88 132.912 13.096C134.512 14.312 135.312 15.848 135.312 17.704C135.312 18.92 134.976 19.896 134.304 20.632C133.632 21.336 132.704 21.688 131.52 21.688C130.336 21.688 129.424 21.384 128.784 20.776C128.144 20.136 127.824 19.304 127.824 18.28C127.824 17.448 128.032 16.76 128.448 16.216C128.896 15.672 129.392 15.272 129.936 15.016V14.728C129.616 14.632 129.232 14.536 128.784 14.44C128.368 14.344 127.792 14.296 127.056 14.296C125.104 14.296 123.584 14.92 122.496 16.168C121.408 17.384 120.864 19.144 120.864 21.448V26.44C120.864 28.552 121.36 30.168 122.352 31.288C123.344 32.376 124.72 32.92 126.48 32.92C128.272 32.92 129.696 32.504 130.752 31.672C131.808 30.84 132.56 29.864 133.008 28.744L135.696 30.328C135.408 31.128 134.992 31.96 134.448 32.824C133.936 33.688 133.264 34.472 132.432 35.176C131.6 35.88 130.608 36.456 129.456 36.904C128.304 37.352 126.96 37.576 125.424 37.576Z" fill="#141414"/>
<path d="M145.256 8.53598C143.912 8.53598 142.856 8.16798 142.088 7.43198C141.352 6.69598 140.984 5.70398 140.984 4.45599V4.21599C140.984 2.96798 141.352 1.97598 142.088 1.23998C142.856 0.503985 143.912 0.135986 145.256 0.135986C146.6 0.135986 147.64 0.503985 148.376 1.23998C149.144 1.97598 149.528 2.96798 149.528 4.21599V4.45599C149.528 5.70398 149.144 6.69598 148.376 7.43198C147.64 8.16798 146.6 8.53598 145.256 8.53598ZM138.776 33.832H141.656V16.696L138.776 16.072V13.336L148.952 11.272V33.832H151.832V37H138.776V33.832Z" fill="#141414"/>
<path d="M167.19 37.576C165.206 37.576 163.446 37.256 161.91 36.616C160.406 35.944 159.126 35.032 158.07 33.88C157.046 32.696 156.262 31.304 155.718 29.704C155.174 28.072 154.902 26.296 154.902 24.376C154.902 22.36 155.174 20.536 155.718 18.904C156.294 17.272 157.094 15.896 158.118 14.776C159.174 13.656 160.422 12.792 161.862 12.184C163.334 11.576 164.966 11.272 166.758 11.272C168.55 11.272 170.166 11.544 171.606 12.088C173.046 12.632 174.262 13.416 175.254 14.44C176.278 15.432 177.062 16.648 177.606 18.088C178.15 19.528 178.422 21.128 178.422 22.888V24.52H162.63V26.44C162.63 28.584 163.19 30.2 164.31 31.288C165.43 32.376 166.918 32.92 168.774 32.92C170.502 32.92 171.894 32.536 172.95 31.768C174.006 30.968 174.758 30.008 175.206 28.888L177.846 30.472C177.558 31.272 177.142 32.088 176.598 32.92C176.054 33.752 175.35 34.52 174.486 35.224C173.622 35.896 172.582 36.456 171.366 36.904C170.15 37.352 168.758 37.576 167.19 37.576ZM162.63 21.496H170.886V20.824C170.886 18.52 170.518 16.904 169.782 15.976C169.046 15.048 168.038 14.584 166.758 14.584C165.478 14.584 164.47 15.048 163.734 15.976C162.998 16.904 162.63 18.52 162.63 20.824V21.496Z" fill="#141414"/>
<path d="M181.561 33.832H184.441V5.94399L181.561 5.31999V2.58399L191.737 0.519984V33.832H194.617V37H181.561V33.832Z" fill="#141414"/>
<path d="M210.034 37.576C208.05 37.576 206.29 37.256 204.754 36.616C203.25 35.944 201.97 35.032 200.914 33.88C199.89 32.696 199.106 31.304 198.562 29.704C198.018 28.072 197.746 26.296 197.746 24.376C197.746 22.36 198.018 20.536 198.562 18.904C199.138 17.272 199.938 15.896 200.962 14.776C202.018 13.656 203.266 12.792 204.706 12.184C206.178 11.576 207.81 11.272 209.602 11.272C211.394 11.272 213.01 11.544 214.45 12.088C215.89 12.632 217.106 13.416 218.098 14.44C219.122 15.432 219.906 16.648 220.45 18.088C220.994 19.528 221.266 21.128 221.266 22.888V24.52H205.474V26.44C205.474 28.584 206.034 30.2 207.154 31.288C208.274 32.376 209.762 32.92 211.618 32.92C213.346 32.92 214.738 32.536 215.794 31.768C216.85 30.968 217.602 30.008 218.05 28.888L220.69 30.472C220.402 31.272 219.986 32.088 219.442 32.92C218.898 33.752 218.194 34.52 217.33 35.224C216.466 35.896 215.426 36.456 214.21 36.904C212.994 37.352 211.602 37.576 210.034 37.576ZM205.474 21.496H213.73V20.824C213.73 18.52 213.362 16.904 212.626 15.976C211.89 15.048 210.882 14.584 209.602 14.584C208.322 14.584 207.314 15.048 206.578 15.976C205.842 16.904 205.474 18.52 205.474 20.824V21.496Z" fill="#141414"/>
</svg>
