<svg width="183" height="46" viewBox="0 0 183 46" fill="none" xmlns="http://www.w3.org/2000/svg">
<path d="M19.832 12.352L22.232 17.68L7.064 24.016L22.232 30.16L19.832 35.68L0.632 27.376V20.704L19.832 12.352ZM49.7626 6.736L48.9946 12.784H40.7866V40H32.9146V12.784H24.3226V6.736H49.7626ZM68.0619 40L66.3339 32.848H56.6379L54.9579 40H46.7979L56.8299 6.736H66.3819L76.4139 40H68.0619ZM57.9819 27.136H64.9899L61.4859 12.448L57.9819 27.136ZM88.1184 6.736C93.3344 6.736 97.5104 7.92 100.646 10.288C103.814 12.624 105.398 16.928 105.398 23.2C105.398 29.376 103.862 33.728 100.79 36.256C97.7184 38.752 93.7344 40 88.8384 40H78.8544V6.736H88.1184ZM86.7264 12.448V34.288H89.3184C91.9104 34.288 93.8784 33.488 95.2224 31.888C96.5664 30.256 97.2384 27.36 97.2384 23.2C97.2384 20.352 96.9024 18.144 96.2304 16.576C95.5584 15.008 94.6464 13.936 93.4944 13.36C92.3424 12.752 90.9184 12.448 89.2224 12.448H86.7264ZM120.824 5.92C123.32 5.92 125.48 6.272 127.304 6.976C129.16 7.68 130.84 8.752 132.344 10.192L128.696 14.464C126.424 12.608 123.992 11.68 121.4 11.68C120.024 11.68 118.936 11.968 118.136 12.544C117.336 13.088 116.936 13.888 116.936 14.944C116.936 15.68 117.112 16.288 117.464 16.768C117.816 17.216 118.44 17.648 119.336 18.064C120.232 18.48 121.576 18.976 123.368 19.552C126.76 20.64 129.256 21.984 130.856 23.584C132.456 25.152 133.256 27.392 133.256 30.304C133.256 32.384 132.728 34.224 131.672 35.824C130.616 37.392 129.096 38.624 127.112 39.52C125.128 40.384 122.776 40.816 120.056 40.816C117.336 40.816 114.92 40.384 112.808 39.52C110.728 38.656 108.936 37.504 107.432 36.064L111.416 31.696C112.696 32.784 114.008 33.6 115.352 34.144C116.728 34.688 118.216 34.96 119.816 34.96C121.448 34.96 122.728 34.608 123.656 33.904C124.616 33.168 125.096 32.16 125.096 30.88C125.096 30.048 124.92 29.36 124.568 28.816C124.216 28.24 123.608 27.728 122.744 27.28C121.88 26.832 120.632 26.352 119 25.84C115.32 24.72 112.696 23.344 111.128 21.712C109.592 20.08 108.824 18.016 108.824 15.52C108.824 13.6 109.336 11.92 110.36 10.48C111.384 9.008 112.808 7.888 114.632 7.12C116.456 6.32 118.52 5.92 120.824 5.92ZM149.301 0.831998L155.925 2.32L144.645 45.376L137.973 43.84L149.301 0.831998ZM163.438 12.352L182.638 20.704V27.376L163.438 35.68L161.038 30.16L176.206 24.016L161.038 17.68L163.438 12.352Z" fill="#141414"/>
</svg>
